<svg width="96" height="96" viewBox="0 0 96 96" fill="none" xmlns="http://www.w3.org/2000/svg">
  <rect x="8" y="8" width="80" height="80" rx="20" fill="#111827"/>
  <rect x="10" y="10" width="76" height="76" rx="18" fill="url(#brand-card)"/>
  <path d="M27 63.5L42.7 31.8C44.8 27.6 50.8 27.7 52.7 32L66.8 63.5" stroke="#FFFFFF" stroke-width="7" stroke-linecap="round" stroke-linejoin="round"/>
  <path d="M37.6 51.2H58.7" stroke="#FFFFFF" stroke-width="6.5" stroke-linecap="round"/>
  <path d="M68.7 27.7C71.2 30.1 72.7 33.5 72.7 37.2C72.7 40.9 71.2 44.3 68.7 46.7" stroke="#7DD3FC" stroke-width="4.8" stroke-linecap="round"/>
  <path d="M23.6 69.1C28.4 72.8 36.3 74.9 47.9 74.9C59.4 74.9 67.3 72.8 72.2 69.1" stroke="#A7F3D0" stroke-width="5.4" stroke-linecap="round"/>
  <circle cx="70" cy="62" r="7" fill="#FBBF24"/>
  <circle cx="70" cy="62" r="3.2" fill="#FEF3C7"/>
  <defs>
    <linearGradient id="brand-card" x1="18" y1="16" x2="79" y2="82" gradientUnits="userSpaceOnUse">
      <stop stop-color="#1D4ED8"/>
      <stop offset="0.48" stop-color="#2563EB"/>
      <stop offset="1" stop-color="#059669"/>
    </linearGradient>
  </defs>
</svg>
