<svg width="96" height="96" viewBox="0 0 96 96" fill="none" xmlns="http://www.w3.org/2000/svg">
  <rect x="8" y="8" width="80" height="80" rx="22" fill="url(#brand-bg)"/>
  <path d="M23 65L39.9 30.9C42.9 24.8 51.7 24.9 54.6 31.1L70.6 65" stroke="#FFFFFF" stroke-width="8" stroke-linecap="round" stroke-linejoin="round"/>
  <path d="M36.8 52.2H57.8" stroke="#DDF6FF" stroke-width="7" stroke-linecap="round"/>
  <path d="M68 30C73.2 35 73.2 43 68 48" stroke="#8EE6D5" stroke-width="5" stroke-linecap="round"/>
  <path d="M75 24C83.2 32.1 83.2 45.9 75 54" stroke="#BAE6FD" stroke-width="4" stroke-linecap="round" opacity="0.85"/>
  <circle cx="69" cy="67" r="8" fill="#FACC15"/>
  <circle cx="69" cy="67" r="3.5" fill="#FFF7CC"/>
  <path d="M21.8 73C27.7 77.4 36.6 80 48 80C59.3 80 68.3 77.4 74.2 73" stroke="#C7F9E9" stroke-width="5" stroke-linecap="round" opacity="0.9"/>
  <defs>
    <linearGradient id="brand-bg" x1="18" y1="15" x2="80" y2="82" gradientUnits="userSpaceOnUse">
      <stop stop-color="#0F172A"/>
      <stop offset="0.45" stop-color="#2563EB"/>
      <stop offset="1" stop-color="#0D9488"/>
    </linearGradient>
  </defs>
</svg>
