<svg width="96" height="96" viewBox="0 0 96 96" fill="none" xmlns="http://www.w3.org/2000/svg">
  <rect x="10" y="10" width="76" height="76" rx="22" fill="url(#frozen-bg)"/>
  <path d="M30 43C30 33.1 38.1 25 48 25C57.9 25 66 33.1 66 43V49.4H59V43C59 37 54 32 48 32C42 32 37 37 37 43V49.4H30V43Z" fill="#F59E0B"/>
  <rect x="25" y="47" width="46" height="31" rx="9" fill="url(#frozen-lock)"/>
  <path d="M39.4 62.7H56.6" stroke="#FFF7ED" stroke-width="5" stroke-linecap="round"/>
  <path d="M48 54.1V71.3" stroke="#FFF7ED" stroke-width="5" stroke-linecap="round"/>
  <path d="M42 56.7L54 68.7" stroke="#FFF7ED" stroke-width="5" stroke-linecap="round"/>
  <path d="M54 56.7L42 68.7" stroke="#FFF7ED" stroke-width="5" stroke-linecap="round"/>
  <path d="M24.5 31.8H32.5" stroke="#38BDF8" stroke-width="4.5" stroke-linecap="round"/>
  <path d="M28.5 27.8V35.8" stroke="#38BDF8" stroke-width="4.5" stroke-linecap="round"/>
  <path d="M66 24.8H74" stroke="#38BDF8" stroke-width="4.5" stroke-linecap="round"/>
  <path d="M70 20.8V28.8" stroke="#38BDF8" stroke-width="4.5" stroke-linecap="round"/>
  <defs>
    <linearGradient id="frozen-bg" x1="18" y1="16" x2="78" y2="82" gradientUnits="userSpaceOnUse">
      <stop stop-color="#FFFBEB"/>
      <stop offset="1" stop-color="#FEF3C7"/>
    </linearGradient>
    <linearGradient id="frozen-lock" x1="31" y1="47" x2="66" y2="78" gradientUnits="userSpaceOnUse">
      <stop stop-color="#FCD34D"/>
      <stop offset="1" stop-color="#F59E0B"/>
    </linearGradient>
  </defs>
</svg>
