<svg width="96" height="96" viewBox="0 0 96 96" fill="none" xmlns="http://www.w3.org/2000/svg">
  <rect x="10" y="10" width="76" height="76" rx="20" fill="#FFFBEB"/>
  <path d="M29.5 43.6C29.5 33.4 37.8 25.2 48 25.2C58.2 25.2 66.5 33.4 66.5 43.6V49.4H59.2V43.6C59.2 37.5 54.1 32.5 48 32.5C41.8 32.5 36.8 37.5 36.8 43.6V49.4H29.5V43.6Z" fill="#F59E0B"/>
  <rect x="25" y="46.8" width="46" height="31" rx="8" fill="#FBBF24"/>
  <circle cx="48" cy="62.3" r="7.2" fill="#FEF3C7"/>
  <path d="M48 57.8V66.9" stroke="#B45309" stroke-width="4.5" stroke-linecap="round"/>
  <path d="M25.8 30.9L31.1 36.2" stroke="#38BDF8" stroke-width="4.6" stroke-linecap="round"/>
  <path d="M31.1 30.9L25.8 36.2" stroke="#38BDF8" stroke-width="4.6" stroke-linecap="round"/>
  <path d="M69.7 23.7L75 29" stroke="#38BDF8" stroke-width="4.6" stroke-linecap="round"/>
  <path d="M75 23.7L69.7 29" stroke="#38BDF8" stroke-width="4.6" stroke-linecap="round"/>
</svg>
