<svg width="96" height="96" viewBox="0 0 96 96" fill="none" xmlns="http://www.w3.org/2000/svg">
  <rect x="10" y="10" width="76" height="76" rx="20" fill="#EFF6FF"/>
  <path d="M26 62.8V48.5C26 45.7 28.2 43.5 31 43.5H65C67.8 43.5 70 45.7 70 48.5V62.8C70 65.6 67.8 67.8 65 67.8H31C28.2 67.8 26 65.6 26 62.8Z" fill="#2563EB"/>
  <path d="M33.5 43.4L43.5 30.1C45.5 27.4 49.6 27.4 51.6 30.1L62.5 43.4H33.5Z" fill="#60A5FA"/>
  <circle cx="48" cy="55.8" r="8.8" fill="#DBEAFE"/>
  <path d="M48 60.7V50.8" stroke="#1D4ED8" stroke-width="4.6" stroke-linecap="round"/>
  <path d="M43.2 55.5L48 50.7L52.8 55.5" stroke="#1D4ED8" stroke-width="4.6" stroke-linecap="round" stroke-linejoin="round"/>
  <path d="M66.8 29.5V40.2" stroke="#14B8A6" stroke-width="5.4" stroke-linecap="round"/>
  <path d="M61.5 34.9H72.1" stroke="#14B8A6" stroke-width="5.4" stroke-linecap="round"/>
</svg>
