<svg width="96" height="96" viewBox="0 0 96 96" fill="none" xmlns="http://www.w3.org/2000/svg">
  <rect x="10" y="10" width="76" height="76" rx="22" fill="url(#latest-bg)"/>
  <path d="M27.5 39.5C31.5 31.9 39.4 26.8 48.5 26.8C61.7 26.8 72.4 37.5 72.4 50.7C72.4 63.9 61.7 74.6 48.5 74.6C39.6 74.6 31.8 69.7 27.7 62.5" stroke="#7C3AED" stroke-width="7" stroke-linecap="round"/>
  <path d="M24 28.2V40.5H36.3" stroke="#7C3AED" stroke-width="7" stroke-linecap="round" stroke-linejoin="round"/>
  <path d="M48.5 39.2V51.4L58.7 57.2" stroke="#A78BFA" stroke-width="6" stroke-linecap="round" stroke-linejoin="round"/>
  <circle cx="48.5" cy="51.4" r="6.2" fill="#7C3AED"/>
  <rect x="61.5" y="22" width="15.5" height="15.5" rx="7.75" fill="#14B8A6"/>
  <path d="M66.2 29.9L68.5 32.2L72.8 27.4" stroke="#FFFFFF" stroke-width="3.2" stroke-linecap="round" stroke-linejoin="round"/>
  <defs>
    <linearGradient id="latest-bg" x1="18" y1="16" x2="78" y2="82" gradientUnits="userSpaceOnUse">
      <stop stop-color="#F5F3FF"/>
      <stop offset="1" stop-color="#EDE9FE"/>
    </linearGradient>
  </defs>
</svg>
