<svg width="96" height="96" viewBox="0 0 96 96" fill="none" xmlns="http://www.w3.org/2000/svg">
  <rect x="10" y="10" width="76" height="76" rx="22" fill="url(#earned-bg)"/>
  <path d="M28 58.8C28 47.8 36.9 38.9 47.9 38.9C58.9 38.9 67.8 47.8 67.8 58.8C67.8 69.8 58.9 78.7 47.9 78.7C36.9 78.7 28 69.8 28 58.8Z" fill="url(#earned-coin)"/>
  <path d="M41.3 58.8H54.5" stroke="#FFFFFF" stroke-width="4.8" stroke-linecap="round"/>
  <path d="M47.9 52.2V65.4" stroke="#FFFFFF" stroke-width="4.8" stroke-linecap="round"/>
  <path d="M30.8 39.2L43.7 26.3C46.1 23.9 50 23.9 52.4 26.3L65.1 39" stroke="#93C5FD" stroke-width="7" stroke-linecap="round" stroke-linejoin="round"/>
  <path d="M48 26.6V42.4" stroke="#2563EB" stroke-width="7" stroke-linecap="round"/>
  <path d="M67 29.2H75.6" stroke="#14B8A6" stroke-width="5" stroke-linecap="round"/>
  <path d="M71.3 24.9V33.5" stroke="#14B8A6" stroke-width="5" stroke-linecap="round"/>
  <defs>
    <linearGradient id="earned-bg" x1="18" y1="16" x2="78" y2="82" gradientUnits="userSpaceOnUse">
      <stop stop-color="#EFF6FF"/>
      <stop offset="1" stop-color="#DBEAFE"/>
    </linearGradient>
    <linearGradient id="earned-coin" x1="36" y1="43" x2="62" y2="76" gradientUnits="userSpaceOnUse">
      <stop stop-color="#60A5FA"/>
      <stop offset="1" stop-color="#2563EB"/>
    </linearGradient>
  </defs>
</svg>
